<svg xmlns="http://www.w3.org/2000/svg" version="1.1" xmlns:xlink="http://www.w3.org/1999/xlink" width="512" height="512" x="0" y="0" viewBox="0 0 70 70" style="enable-background:new 0 0 512 512" xml:space="preserve" class=""><g><path d="m49.766 13.428 2.865.512a.75.75 0 0 0 .263-1.477l-2.864-.512a.754.754 0 0 0-.87.607.75.75 0 0 0 .606.87zM49.008 9.922l2.177-1.281a.75.75 0 1 0-.76-1.293L48.25 8.629a.75.75 0 1 0 .76 1.293zM47.707 4.213a.747.747 0 0 0-.96.452L46.04 6.63a.75.75 0 0 0 1.412.508l.707-1.965a.75.75 0 0 0-.452-.96zM13.688 49.774c.512 1.029.102 2.647.08 3.772-.15 8.046 1.019 10.776 10.373 11.578 3.1.472 6.263.599 9.405.667 4.47.097 8.984.099 13.351-.855 1.992-.435 2.607-1.084 2.773-3.343a52.34 52.34 0 0 0-.214-9.92c6.583-2.343 12.87-6.148 16.037-12.376 1.533-3.013 2.146-6.406.658-9.426-2.127-5.836-8.757-9.123-14.592-6.338-1.612.767-2.775 1.766-3.6 2.196-.226-1.007.156-6.958-1.697-11.673a.75.75 0 1 0-1.396.549c.634 1.611 1.04 3.477 1.28 5.868.428 4.57-.081 6.034 1.074 6.669 1.237.68 2.456-1.05 4.985-2.255 8.758-4.178 18.985 7.72 8.783 16.798-3.658 3.253-8.38 5.461-12.971 7.419-.608-1.041-2.362-1.632-3.531-1.92.928-1.745 3.276-2.2 6.075-5.589a.75.75 0 0 0-1.156-.955c-2.898 3.508-5.44 3.716-6.45 6.23-3.314-.565-4.642-.71-6.023-.824.299-4.282 4.315-7.955 4.745-12.666a.75.75 0 0 0-.678-.815.735.735 0 0 0-.816.678c-.41 4.507-4.403 7.807-4.745 12.701-2.659-.136-5.326-.068-8.48.326.08-2.535-.975-4.869-1.176-7.188a.75.75 0 1 0-1.494.13c.093 1.08.346 2.135.59 3.154.883 3.677.455 3.574.622 4.112-1.36.212-2.715.464-4.057.792-.172-.846-1.23-.254-4.463-6.461a.75.75 0 0 0-1.33.693c1.068 2.052 2.281 4.354 4.214 6.144-1.145.296-2.426.73-3.279 1.574-4.109-4.193-9.15-7.98-11.218-13.433-2.236-5.9 1.946-11.836 8.762-10.117 3.78.93 5.393 2.773 6.127 1.726a.75.75 0 0 0-.013-.876c-.196-.265-.29-.656-.367-1.03-.4-1.983-.525-3.552-.393-4.939.587-6.114 3.878-13.586 11.22-14.52 4.518-.563 9.355 1.647 12.21 5.19a.75.75 0 0 0 1.168-.941c-2.302-2.857-5.712-4.894-9.358-5.588-9.507-1.823-15.808 6.07-16.733 15.716-.143 1.501-.02 3.165.386 5.23-1.482-.698-2.863-1.172-3.885-1.424-5.164-1.299-9.274 1.21-10.699 5.26-.36.693-.626 1.43-.688 2.249-.283 3.692-.138 6.185 2.055 9.1 2.749 3.653 7.717 7.319 8.529 8.95zm3.833 11.628c4.342-1.796 24.862-1.324 29.086.651-4.342 1.799-24.872 1.322-29.086-.651zm4.089-12.636a47.242 47.242 0 0 1 12.642-1.373c3.31.089 5.344.467 7.43.79 1.655.257 3.714.574 4.89 1.495.634.496.135 1.048.292 10.934-5.232-2.16-24.711-2.45-29.696-.646.007-3.324-.316-5.954-.035-8.617.153-1.451 2.763-2.134 4.477-2.583z" fill="#fff" opacity="1" data-original="#fff" class=""></path></g></svg>