<!-- SVG Sprite -->
<svg width="0" height="0" class="hidden">
  <symbol
    xmlns="http://www.w3.org/2000/svg"
    viewBox=".001 0 3354.111 713.496"
    id="tripadvisor"
  >
    <path
      d="m3335.258 476.767c-10.404 0-18.854 8.45-18.854 18.854s8.449 18.854 18.854 18.854c10.402 0 18.854-8.45 18.854-18.854-.001-10.404-8.452-18.854-18.854-18.854zm0 34.718c-8.77 0-15.865-7.136-15.865-15.864 0-8.77 7.135-15.864 15.865-15.864 8.77 0 15.904 7.135 15.904 15.864s-7.135 15.864-15.904 15.864zm6.138-19.093c0-3.428-2.432-5.461-6.02-5.461h-6.02v17.18h2.949v-6.218h3.229l3.109 6.218h3.189l-3.428-6.855c1.836-.838 2.992-2.513 2.992-4.864zm-6.138 2.83h-2.91v-5.699h2.91c1.992 0 3.188.996 3.188 2.83-.001 1.873-1.235 2.869-3.188 2.869zm-2271.75-209.266v-45.6h-69.914v271.288h69.914v-162.668c0-29.457 18.894-43.927 48.351-43.927h38.266v-64.692h-32.686c-25.59-.001-47.832 13.352-53.931 45.599zm152.107-152.903c-23.916 0-42.252 18.894-42.252 42.81 0 23.358 18.336 42.252 42.252 42.252s42.252-18.894 42.252-42.252c-.001-23.917-18.336-42.81-42.252-42.81zm-34.878 378.592h69.756v-271.289h-69.756zm402.029-135.645c0 77.448-62.779 140.229-140.228 140.229-31.251 0-59.591-10.244-82.312-27.544v102.601h-69.755v-350.93h69.755v22.959c22.721-17.299 51.061-27.543 82.312-27.543 77.449 0 140.228 62.78 140.228 140.228zm-70.193 0c0-42.052-34.12-76.173-76.173-76.173s-76.173 34.121-76.173 76.173c0 42.053 34.121 76.173 76.173 76.173 42.053 0 76.173-34.08 76.173-76.173zm1282.579-23.796-40.697-11.161c-26.785-6.976-37.189-15.187-37.189-29.337 0-13.792 14.668-23.438 35.635-23.438 19.971 0 35.635 13.074 35.635 29.815v1.554h64.295v-1.554c0-49.228-40.139-82.312-99.93-82.312-59.191 0-102.201 33.044-102.201 78.604 0 35.436 23.477 62.142 64.453 73.223l38.984 10.643c29.615 8.211 40.617 17.3 40.617 33.603 0 17.18-15.904 28.739-39.582 28.739-24.674 0-41.295-15.626-41.295-38.824v-1.555h-68.24v1.555c0 55.645 44.803 94.548 108.979 94.548 61.822 0 106.705-37.986 106.705-90.283-.001-25.67-11.481-59.231-66.169-73.82zm-964.933-111.848h69.754v271.288h-69.754v-22.96c-22.721 17.3-51.062 27.544-82.312 27.544-77.447 0-140.227-62.78-140.227-140.229s62.78-140.228 140.227-140.228c31.25 0 59.592 10.244 82.312 27.543zm0 135.644c0-42.092-34.121-76.173-76.174-76.173s-76.172 34.121-76.172 76.173c0 42.053 34.119 76.173 76.172 76.173 42.092 0 76.174-34.08 76.174-76.173zm321.631-232.185h69.756v367.869h-69.756v-22.96c-22.721 17.3-51.061 27.544-82.311 27.544-77.449 0-140.229-62.78-140.229-140.229s62.779-140.228 140.229-140.228c31.25 0 59.59 10.244 82.311 27.543zm0 232.185c0-42.052-34.121-76.173-76.174-76.173-42.051 0-76.172 34.121-76.172 76.173 0 42.053 34.08 76.173 76.172 76.173 42.053 0 76.174-34.08 76.174-76.173zm393.619 135.645h69.754v-271.289h-69.754zm34.877-378.592c-23.916 0-42.252 18.894-42.252 42.81 0 23.358 18.336 42.252 42.252 42.252s42.252-18.894 42.252-42.252c0-23.917-18.336-42.81-42.252-42.81zm582.476 242.947c0 77.448-62.779 140.229-140.229 140.229-77.447 0-140.227-62.78-140.227-140.229s62.779-140.228 140.227-140.228c77.45 0 140.229 62.78 140.229 140.228zm-64.054 0c0-42.052-34.121-76.173-76.174-76.173s-76.172 34.121-76.172 76.173c0 42.053 34.08 76.173 76.172 76.173 42.052 0 76.174-34.08 76.174-76.173zm-2070.975-232.185h-267.581v62.222h99.053v305.607h69.516v-305.607h99.053v-62.222zm1353.213 293.53-62.062-196.988h-73.264l93.074 271.288h83.945l93.631-271.288h-73.264zm884.017-151.389v-45.6h-69.914v271.288h69.914v-162.668c0-29.457 18.895-43.927 48.35-43.927h38.266v-64.692h-32.684c-25.592-.001-47.793 13.352-53.932 45.599z"
    ></path>
    <circle cx="356.749" cy="356.748" fill="#34e0a1" r="356.748"></circle>
    <path
      d="m577.095 287.152 43.049-46.836h-95.465c-47.792-32.646-105.51-51.659-167.931-51.659-62.342 0-119.899 19.054-167.612 51.659h-95.704l43.049 46.836c-26.387 24.075-42.929 58.754-42.929 97.259 0 72.665 58.914 131.578 131.579 131.578 34.519 0 65.968-13.313 89.446-35.077l42.172 45.919 42.172-45.879c23.478 21.764 54.887 35.037 89.406 35.037 72.665 0 131.658-58.913 131.658-131.578.039-38.545-16.502-73.223-42.89-97.259zm-351.925 186.306c-49.188 0-89.047-39.859-89.047-89.047s39.86-89.048 89.047-89.048 89.047 39.86 89.047 89.048-39.86 89.047-89.047 89.047zm131.618-91.638c0-58.595-42.61-108.898-98.853-130.383 30.413-12.716 63.776-19.771 98.813-19.771s68.439 7.055 98.853 19.771c-56.202 21.525-98.813 71.789-98.813 130.383zm131.579 91.638c-49.188 0-89.048-39.859-89.048-89.047s39.86-89.048 89.048-89.048 89.047 39.86 89.047 89.048-39.86 89.047-89.047 89.047zm0-135.764c-25.79 0-46.677 20.887-46.677 46.677 0 25.789 20.887 46.676 46.677 46.676 25.789 0 46.676-20.887 46.676-46.676-.001-25.75-20.887-46.677-46.676-46.677zm-216.521 46.717c0 25.789-20.887 46.676-46.676 46.676s-46.676-20.887-46.676-46.676c0-25.79 20.887-46.677 46.676-46.677 25.789-.04 46.676 20.887 46.676 46.677z"
    ></path>
  </symbol>
  <symbol
    id="trivago"
    xmlns="http://www.w3.org/2000/svg"
    viewBox="0 0 102 31.8"
  >
    <style>
      .st0 {
        fill: #f48f00;
      }
      .st1 {
        fill: #007faf;
      }
      .st2 {
        fill: #c94a38;
      }
    </style>
    <path class="st0" d="M33.7 7h5.4l4.1 11.1h.1L47.2 7h5.1l-6.4 16.4h-5.3" />
    <path
      class="st1"
      d="M14 11.1H9v5.5c0 .9.1 2.1 1 2.7.9.4 1.9.5 2.9.3.4 0 .8-.2 1.1-.4v4.2c-.6.2-1.3.3-1.9.4-3.6.4-8.5-.3-8.5-4.8v-7.8H0V7h3.5V2.2H9V7h5v4.1zM28.1 7h5v16.4h-5V7zm-.2-4.3C27.8 1.3 29 0 30.5 0s2.7 1.1 2.7 2.6v.1c0 1.5-1.3 2.7-2.7 2.6-1.4 0-2.6-1.1-2.6-2.6"
    />
    <path
      class="st2"
      d="M90.1 15.2c0 2.2 1.3 4.1 3.6 4.1s3.6-1.9 3.6-4.1-1.3-4.1-3.6-4.1-3.6 1.9-3.6 4.1m-4.5 0c-.2-4.5 3.3-8.4 7.8-8.6 2.7-.1 5.2 1.1 6.9 3.2 2 2.9 2.3 6.6.7 9.8-2.2 4-7.2 5.4-11.2 3.2-2.7-1.5-4.4-4.4-4.2-7.6M80.2 7v2.2h-.1c-.1-.2-.3-.4-.5-.6-3.3-2.8-8.8-2.2-10.9 1.7-1 2.1-1.3 4.5-.9 6.8.3 2.1 1.1 4.3 2.9 5.5 2.1 1.3 4.6 1.6 6.9.7.8-.3 1.5-.9 2.1-1.6h.1v1.6c.1 1.1-.3 2.1-1 2.9-1.4 1.5-4.2 1.4-6.1.9-1-.3-2-.7-2.9-1.3l-2.5 3.6c1.2.9 2.5 1.5 3.9 1.9 3.6.9 8.5.9 11.3-1.9 1.6-1.6 2.2-4 2.2-7.1V7h-4.5zM79 18.3c-1.4 1.5-3.7 1.6-5.2.2l-.2-.2c-1.3-1.8-1.3-4.2 0-6 1.4-1.5 3.7-1.6 5.2-.2l.2.2c1.3 1.7 1.3 4.2 0 6-.7.7.6-.8 0 0z"
    />
    <path
      class="st1"
      d="M15.3 7h5.1v2.7h.1c.4-.9 1.1-1.7 1.9-2.3 1.4-.7 3-1 4.5-.6v4.6c-1-.3-3.2-.7-4.7.2-1 .6-1.7 1.3-1.7 4.9v6.8h-5.1L15.3 7z"
    />
    <path
      class="st0"
      d="M57 16.9c-1 .6-1.7 1.8-.8 2.8.9.9 2.5.8 3.6.4 1.3-.3 2.2-1.5 2.2-2.8v-1c.1 0-3.7-.2-5 .6zm5.1 4.5c-.6.8-1.4 1.5-2.3 1.9-3.6 1.5-8.7 0-8.8-4.5 0-4.7 5.1-5.6 8.8-5.7h2.3c0-.8-.3-1.6-1-2.1a4.1 4.1 0 0 0-4.5-.3c-.7.4-1.3.8-1.8 1.4L52 9.3c.9-.9 2.1-1.5 3.3-2 2.3-.8 4.7-.9 7-.3 2.1.6 3.6 2.3 4 4.4.2 1.2.3 2.4.3 3.6v8.3H62l.1-1.9z"
    />
  </symbol>

  <symbol
    version="1.1"
    id="agoda"
    xmlns="http://www.w3.org/2000/svg"
    xmlns:xlink="http://www.w3.org/1999/xlink"
    x="0px"
    y="0px"
    xml:space="preserve"
    viewBox="0 0 512 512"
  >
    <style type="text/css">
      .st0 {
        fill: #ffffff;
      }
      .st1 {
        fill: #929291;
      }
      .st2 {
        fill: #ed2024;
      }
      .st3 {
        fill: #f79e1c;
      }
      .st4 {
        fill: #21ae5c;
      }
      .st5 {
        fill: #8150a0;
      }
      .st6 {
        fill: #2e7fc2;
      }
    </style>
    <g id="XMLID_1_">
      <path
        id="XMLID_51_"
        class="st0"
        d="M52.2,270.6c-6.4,0.5-12.6,3.2-17.4,7.4c-7.6,6.5-11.5,17-10.1,26.9
		c1.4,12.6,11.6,23.5,24,25.9c9,1.9,18.7-0.5,25.8-6.4c6.8-5.6,11-14.2,11-23c0.3-10.1-4.9-20.1-13.3-25.7
		C66.4,271.8,59.2,270,52.2,270.6z"
      />
      <path
        id="XMLID_50_"
        class="st0"
        d="M152.3,270.7c-12.5,1.1-23.7,10.9-26.4,23.2c-2.5,9.9,0.5,20.9,7.6,28.2
		c6.6,7,16.7,10.5,26.2,9.1c8.1-1.1,15.6-5.5,20.4-12.1c4-5.4,6.2-12.3,5.9-19c-0.1-9.2-4.9-18.2-12.3-23.6
		C167.6,271.9,159.8,269.9,152.3,270.7z"
      />
      <path
        id="XMLID_49_"
        class="st0"
        d="M253.1,270.7c-6.7,0.6-13.1,3.6-17.9,8.2c-7,6.5-10.5,16.6-9.2,26c1,8.7,6.2,16.9,13.6,21.6
		c6.1,4,13.7,5.7,21,4.6c8.2-1.1,15.8-5.8,20.6-12.6c4.8-6.7,6.6-15.4,5-23.5c-1.6-8.5-7.1-16.2-14.6-20.5
		C266,271.3,259.4,270.1,253.1,270.7z"
      />
      <path
        id="XMLID_48_"
        class="st0"
        d="M353.8,270.6c-11.4,0.9-21.8,9-25.6,19.7c-2.9,8-2.4,17.2,1.5,24.7c4.3,8.6,13,14.8,22.5,16.1
		c9.2,1.5,19-1.6,25.7-8.1c5.3-5.1,8.7-12.1,9.3-19.4c0.8-8.8-2.5-17.9-8.8-24.1C372.1,273,362.8,269.8,353.8,270.6z"
      />
      <path
        id="XMLID_47_"
        class="st0"
        d="M454.6,270.6c-5.6,0.5-10.9,2.6-15.4,5.9c-7.6,5.6-12.3,14.9-12.2,24.3c-0.1,6.5,2,13,5.8,18.2
		c4.9,6.8,12.7,11.4,21.1,12.3c9.3,1.2,19-2.3,25.5-9.1c6.5-6.6,9.7-16.4,8.3-25.6c-1.1-8.4-6-16.2-13-20.9
		C468.8,271.8,461.6,270,454.6,270.6z"
      />
      <g id="XMLID_13_">
        <g id="XMLID_37_">
          <path
            id="XMLID_38_"
            class="st1"
            d="M217.3,180.9c2-0.7,4.6-0.6,6.1,1.2c1.2,1.4,1.2,3.4,1.2,5.2c-0.1,15.9,0,31.7,0,47.6
				c0.2,3.8-4.3,6.3-7.5,4.5c-2.3-1.2-2.8-4-2.7-6.4c-3.1,3.6-7.2,6.5-12.1,6.9c-5,0.6-10.3-1.2-13.7-5c-4.7-4.9-6.1-12-5.9-18.6
				c0.2-5.7,1.8-11.6,6.1-15.6c4.4-4.2,11.1-5.1,16.9-3.7c3.5,0.8,6.2,3.2,8.7,5.6c0-5.3,0-10.7,0-16
				C214.4,184.4,215.1,181.8,217.3,180.9z M201.2,204.8c-4.2,1.1-6.6,5.3-7.3,9.3c-0.8,4.9-0.4,10.5,3,14.4c3.4,3.9,10.1,3.9,13.5,0
				c3.8-4.4,3.9-10.9,2.5-16.2C211.7,207.4,206.5,203.2,201.2,204.8z"
          />
        </g>
        <g id="XMLID_33_">
          <path
            id="XMLID_34_"
            class="st1"
            d="M31.5,199.3c5.5-3.2,12.2-3.4,18.3-2.8c4.1,0.4,8.6,1.6,11,5.3c3,4.7,2.3,10.6,2.4,15.9
				c0.1,4.2-0.4,8.5,0.7,12.6c0.5,2.2,1.6,4.4,1,6.6c-1.1,2.2-3.7,3.6-6.2,2.8c-2.5-1.1-3.9-3.6-5.4-5.7c-3.7,2.7-7.9,5.3-12.6,5.7
				c-4.7,0.6-10-0.2-13.5-3.8c-3.2-3.3-4.2-8.5-2.4-12.8c1.6-3.7,5.2-6.1,9-7c6.2-1.4,12.5-2.5,18.6-4.3c-0.2-2.4-0.4-5.3-2.5-6.9
				c-3-1.6-6.7-1.4-9.9-0.6c-2.9,0.8-4.6,3.4-6.1,5.7c-1.6,3.5-7.6,2.1-8-1.5C25.6,204.8,28.3,201.2,31.5,199.3z M40.4,221.6
				c-2.3,0.6-4.9,1.9-5.4,4.4c-0.7,3.1,1.9,6.3,5,6.7c3.7,0.5,7.6-0.8,10.2-3.5c2.5-2.9,2.2-7,2.5-10.6
				C48.7,219.8,44.6,220.6,40.4,221.6z"
          />
        </g>
        <g id="XMLID_29_">
          <path
            id="XMLID_30_"
            class="st1"
            d="M82.7,200.9c4.6-4.5,11.8-5.4,17.8-3.5c3.3,1,5.8,3.5,8,6.1c0-1.8-0.1-3.8,1.1-5.3
				c1.5-2,4.4-2.1,6.5-1.2c2.4,1.5,2.3,4.6,2.5,7c0.1,10.4,0,20.7,0,31.1c-0.1,5.5-0.7,11.6-4.7,15.8c-3.9,3.9-9.8,4.8-15.1,5
				c-5.6,0.2-11.6-0.7-16.3-3.8c-2.4-1.6-4.7-4.3-4.4-7.4c0.2-2.8,3.4-4.5,6-3.7c2.5,0.6,3.6,3.2,5.3,4.8c2.6,2.7,6.6,2.9,10.1,2.5
				c2.7-0.3,5.8-1.5,7-4.2c1.6-3.6,1.1-7.7,1.3-11.6c-2.8,3.6-7,6.5-11.7,6.6c-4.8,0.4-9.9-1-13.3-4.5c-4.4-4.3-6-10.7-6.1-16.7
				C76.6,211.6,78.2,205.1,82.7,200.9z M94.9,204.9c-4.4,1.2-6.7,5.7-7.1,9.9c-0.5,4.4-0.2,9.5,2.9,13c2.8,3.3,8,4,11.7,1.8
				c3.4-2,5.3-6,5.5-9.8c0.2-4.1-0.3-8.5-2.9-11.8C102.7,205,98.5,203.8,94.9,204.9z"
          />
        </g>
        <g id="XMLID_25_">
          <path
            id="XMLID_26_"
            class="st1"
            d="M146.7,196.6c5.7-0.7,11.9,0,16.8,3.3c5.6,3.7,8.5,10.4,8.6,17c0.3,6-1.3,12.2-5.4,16.7
				c-4,4.4-10.1,6.4-16,6.3c-5.5,0.1-11.2-1.7-15.2-5.7c-4.1-3.9-6-9.6-6.1-15.2c-0.2-6,1.4-12.4,5.8-16.8
				C138.2,199.1,142.4,197.3,146.7,196.6z M147.4,204.9c-4,1.3-6.2,5.4-6.8,9.3c-0.8,4.8-0.4,10.2,2.7,14.1
				c3.3,4.3,10.3,4.6,14.1,0.8c2.9-2.8,3.8-7,3.8-10.8c0-3.8-0.6-7.9-3.3-10.8C155.4,204.6,151,203.7,147.4,204.9z"
          />
        </g>
        <g id="XMLID_21_">
          <path
            id="XMLID_22_"
            class="st1"
            d="M243.5,199.4c5.9-3.5,13.1-3.5,19.7-2.7c4.6,0.5,9.6,3,11,7.8c2.3,7.9,0.3,16.2,1.4,24.2
				c0.4,2.5,1.6,4.8,1.6,7.3c-0.5,3.1-4.8,5-7.4,3.2c-1.8-1.3-3.1-3.2-4.3-5.1c-3.2,1.9-6.2,4.2-9.8,5.1c-5.2,1.3-11.4,1.1-15.7-2.7
				c-4.5-3.8-5.3-11.3-1.5-15.9c1.9-2.4,4.9-3.9,7.9-4.6c5.8-1.3,11.7-2.3,17.4-4c1.5-0.1,0.6-1.9,0.6-2.8c-0.4-2-1.3-4.3-3.5-4.9
				c-3.2-1-6.8-0.8-9.9,0.4c-3,1.3-4.1,4.7-6.3,6.8c-2.5,1.2-6.3,0-6.7-3C237.6,204.8,240.3,201.2,243.5,199.4z M252.1,221.7
				c-2.2,0.5-4.5,1.9-5,4.3c-0.7,3,1.7,6.1,4.6,6.6c3.9,0.7,8.2-0.7,10.8-3.7c2.3-2.9,2-6.8,2.1-10.2
				C260.5,219.9,256.2,220.6,252.1,221.7z"
          />
        </g>
        <path
          id="XMLID_20_"
          class="st1"
          d="M334.5,196.7c6.9-1.3,14.6,0,19.9,4.9c2.1,2,4,4.8,3.8,7.8c-0.2,3.7-5.7,5.6-8,2.7
			c-2-2.4-3.6-5.2-6.5-6.6c-3.4-1.4-7.7-1-10.5,1.5c-2.9,2.7-4,6.8-4.1,10.7c-0.1,3.8,0.7,7.9,3.2,10.8c3.4,4,10.3,4.4,14.1,0.7
			c1.8-1.7,2.8-4.1,4.4-5.9c1.7-2.1,5.5-1.8,6.9,0.5c1.7,2.2,0.9,5.2-0.3,7.4c-3,5.3-9.1,7.9-14.9,8.5c-5.6,0.6-11.8-0.2-16.5-3.6
			c-3.9-2.9-6.6-7.4-7.4-12.2c-1.1-6.2-0.4-12.9,2.8-18.4C324.2,200.8,329.2,197.7,334.5,196.7z"
        />
        <g id="XMLID_16_">
          <path
            id="XMLID_17_"
            class="st1"
            d="M387.6,196.6c5.3-0.6,10.9-0.2,15.6,2.5c5.1,2.8,8.5,8.1,9.5,13.7c1.1,6.5,0.3,13.6-3.6,19
				c-3.5,5-9.6,7.8-15.6,8c-5.2,0.3-10.6-0.7-14.9-3.9c-4.2-3-7-7.7-7.8-12.8c-1.2-6.6-0.2-14,4-19.4
				C377.9,199.8,382.6,197.4,387.6,196.6z M388.3,205c-3.6,1.2-5.8,4.9-6.5,8.5c-1,5-0.6,10.7,2.5,14.9c3.3,4.4,10.7,4.7,14.4,0.6
				c2.7-2.8,3.6-6.9,3.5-10.6c0-4-0.8-8.3-3.7-11.2C395.9,204.5,391.7,203.8,388.3,205z"
          />
        </g>
        <path
          id="XMLID_15_"
          class="st1"
          d="M427.4,198.3c2-2.8,6.7-2.5,8.5,0.4c0.7,1.1,0.7,2.5,0.9,3.8c3.4-4.1,8.7-6.6,14.1-6
			c4.2,0.1,8.1,2.5,10.3,6.1c2.6-2.7,5.6-5.3,9.4-5.9c5-0.9,10.8,0.1,14.1,4.2c2.3,2.7,2.6,6.4,2.7,9.9c0,7.1,0,14.3,0,21.4
			c0,2,0,4.2-1.3,5.8c-2,2.7-6.8,2.7-8.8-0.1c-1.1-1.4-1.2-3.3-1.2-5c0-6.4,0.1-12.9,0-19.3c-0.1-2.7-0.1-5.9-2.5-7.7
			c-2.9-1.8-6.8-0.6-8.9,1.9c-1.9,2.2-2.1,5.1-2.3,7.9c-0.3,6.3,0,12.6-0.2,18.9c-0.1,1.9-0.9,3.8-2.6,4.8c-3.1,1.9-7.8,0.2-8.3-3.6
			c-0.8-8.3,0-16.8-0.4-25.1c-0.2-2.1-1-4.6-3.2-5.3c-3.4-0.9-8,0.2-9.2,4c-2,5.8-1.3,12.1-1.4,18.2c-0.2,3.2,0.5,6.5-0.5,9.5
			c-1.3,3.5-6.5,4.2-8.9,1.5c-1.2-1.3-1.6-3.1-1.6-4.8c0-10.1,0-20.2,0-30.3C426.3,201.5,426.3,199.7,427.4,198.3z"
        />
        <path
          id="XMLID_14_"
          class="st1"
          d="M297.1,228.2c4.3-1.5,8.9,3,7.5,7.4c-0.8,4.6-7.3,5.8-10.3,2.6
			C291.4,235.1,292.8,229.2,297.1,228.2z"
        />
      </g>
      <g id="XMLID_11_">
        <path
          id="XMLID_12_"
          class="st2"
          d="M52.2,270.6c7-0.6,14.1,1.2,19.9,5.2c8.4,5.6,13.6,15.6,13.3,25.7c0,8.8-4.2,17.4-11,23
			c-7,5.9-16.8,8.3-25.8,6.4c-12.4-2.4-22.5-13.3-24-25.9c-1.4-9.9,2.5-20.4,10.1-26.9C39.7,273.8,45.8,271.1,52.2,270.6z"
        />
      </g>
      <g id="XMLID_9_">
        <path
          id="XMLID_10_"
          class="st3"
          d="M152.3,270.7c7.5-0.8,15.3,1.2,21.4,5.8c7.5,5.4,12.2,14.4,12.3,23.6c0.3,6.8-1.9,13.6-5.9,19
			c-4.8,6.6-12.3,11-20.4,12.1c-9.5,1.4-19.6-2.1-26.2-9.1c-7.1-7.3-10.1-18.3-7.6-28.2C128.6,281.6,139.8,271.8,152.3,270.7z"
        />
      </g>
      <g id="XMLID_7_">
        <path
          id="XMLID_8_"
          class="st4"
          d="M253.1,270.7c6.4-0.6,13,0.7,18.5,4c7.5,4.3,13,12,14.6,20.5c1.6,8.1-0.2,16.8-5,23.5
			c-4.7,6.8-12.4,11.5-20.6,12.6c-7.2,1.1-14.9-0.6-21-4.6c-7.4-4.8-12.5-12.9-13.6-21.6c-1.3-9.5,2.2-19.5,9.2-26
			C240,274.2,246.4,271.3,253.1,270.7z"
        />
      </g>
      <g id="XMLID_5_">
        <path
          id="XMLID_6_"
          class="st5"
          d="M353.8,270.6c9-0.9,18.3,2.3,24.6,8.8c6.3,6.2,9.6,15.3,8.8,24.1c-0.6,7.3-3.9,14.4-9.3,19.4
			c-6.7,6.5-16.5,9.6-25.7,8.1c-9.5-1.3-18.2-7.5-22.5-16.1c-3.9-7.5-4.4-16.7-1.5-24.7C332.1,279.6,342.4,271.6,353.8,270.6z"
        />
      </g>
      <g id="XMLID_3_">
        <path
          id="XMLID_4_"
          class="st6"
          d="M454.6,270.6c7-0.6,14.2,1.1,20,5.1c7,4.7,11.9,12.5,13,20.9c1.4,9.2-1.7,18.9-8.3,25.6
			c-6.5,6.8-16.2,10.3-25.5,9.1c-8.3-0.9-16.1-5.5-21.1-12.3c-3.8-5.2-5.9-11.7-5.8-18.2c-0.1-9.4,4.7-18.7,12.2-24.3
			C443.7,273.2,449.1,271.1,454.6,270.6z"
        />
      </g>
    </g>
  </symbol>

  <symbol
    version="1.1"
    id="makemytrip"
    xmlns="http://www.w3.org/2000/svg"
    xmlns:xlink="http://www.w3.org/1999/xlink"
    x="0px"
    y="0px"
    enable-background="new 0 0 960 305"
    xml:space="preserve"
    viewBox="0 0 960 305"
  >
    <g>
      <path
        fill="#CF381E"
        d="M630.465,304.88c18.435-0.239,35.911-7.421,48.598-20.35c12.929-12.927,20.11-30.402,20.11-48.598V69.547
	  c0-18.433-7.182-35.911-19.869-49.077C666.376,7.541,648.899,0.12,630.465,0.12H463.122c-18.434,0.24-35.911,7.421-48.599,20.35
	  c-12.928,13.167-20.11,30.645-20.11,49.077v166.625c0.239,37.826,30.883,68.469,68.709,68.708"
      ></path>
      <path
        fill="#FFFFFF"
        d="M583.063,161.957c-6.465,21.546,4.068,43.092,26.333,34.475c-6.464,15.561-17.238,38.782-17.238,62.962
	  c0,0,0,16.28,11.97,20.35c0,0,16.76,4.07,13.171-10.773c-2.634-9.337-3.351-18.912-2.155-28.488
	  c4.068-19.872,10.295-39.263,18.435-57.936c0,0,25.616-53.388,40.458-78.285c0,0,6.223-12.688-6.465-12.688
	  c-3.83,0-7.422,1.915-9.814,5.026l-36.148,64.399c-5.51,10.056-10.774,13.169-14.846,13.169c-9.095,0-7.182-14.604-5.744-19.873
	  c4.068-17.955,10.533-35.189,19.152-51.711c6.464-14.124-6.465-15.32-6.465-15.32c-8.141-2.155-14.363,11.253-14.363,11.253
	  l-14.365,29.206c-9.337,16.28-19.631,31.841-30.643,46.924c0,0-1.918,2.393-3.352,1.437c-1.438-1.198-0.721-3.591-0.721-3.591
	  c2.396-19.872,6.465-39.503,11.971-58.895c0.24-1.198,0.479-2.154,0.479-3.351c0.242-2.634-0.479-5.267-2.154-7.184
	  c-1.676-2.154-4.068-3.351-6.703-3.351c-6.464-0.717-9.577,2.395-15.32,9.336c-12.688,15.563-27.533,39.023-34.715,49.558
	  c-0.717,1.196-2.154,0.957-2.154-0.719c0-4.789,16.759-56.5,16.759-56.5s1.913-7.181-3.83-9.575c0,0-8.856-5.506-16.042,5.266
	  l-34.473,46.925c-2.633,3.591-4.069,2.395-4.069,2.395v-3.113l5.506-30.643c4.31-23.461-3.83-24.659-9.097-25.616
	  c-3.831,0-7.9,1.196-11.253,3.352c-10.772,5.266-18.912,26.574-18.912,26.574s-2.394,7.66,2.872,10.771
	  c1.677,0.957,3.592,1.676,5.507,1.437c7.661-0.479,9.098-14.604,14.604-14.604c0.958,0,0.958,1.198,0.958,1.438l-17.716,74.455
	  c-1.197,4.308,0.718,8.856,4.31,11.251c2.394,1.437,5.027,1.676,7.66,1.196c2.395-0.717,4.549-2.393,5.985-4.547l6.463-10.055
	  c9.338-16.52,26.575-40.221,28.251-40.221c0.717,0,0.959,0,0.959,0.717l-6.466,43.813c-0.719,3.83,1.437,7.899,5.028,9.575
	  c3.351,1.196,6.943,0.957,10.053-0.719c3.592-2.872,6.705-6.464,8.86-10.534c3.589-5.745,20.827-26.095,31.359-44.768
	  c0.721-1.198,1.438,0,1.2,0.719c-2.154,9.815-3.834,35.909-4.072,42.373c-0.479,12.689,9.336,14.125,9.578,14.125
	  c6.465,0.479,12.688-2.395,16.279-7.66"
      ></path>
      <path
        fill="#174880"
        d="M67.868,190.924H48.715v-42.853c0.24-4.788-0.719-9.577-2.872-13.646c-2.155-3.113-5.985-5.028-9.816-4.549
	  c-3.352,0-6.464,0.719-9.097,2.395c-2.874,1.915-5.267,4.547-6.942,7.421v51.231H0.835V113.12h10.772l7.183,10.532
	  c1.915-1.676,3.83-3.113,5.745-4.548c1.915-1.198,3.83-2.154,5.985-3.113c2.154-0.958,4.31-1.676,6.464-2.154
	  c2.154-0.479,4.549-0.717,6.943-0.717c2.633,0,5.266,0.237,7.66,0.956c1.915,0.719,3.83,1.436,5.745,2.632
	  c1.438,1.198,2.873,2.635,4.07,4.072c1.437,1.913,2.395,3.589,3.353,5.506c1.436-1.438,3.112-3.113,5.027-4.549
	  c1.915-1.437,4.069-2.874,6.463-4.07c2.155-1.436,4.55-2.634,7.183-3.591c2.873-0.719,5.745-1.198,8.857-1.198
	  c3.83,0,7.422,0.959,10.773,2.634c3.112,1.916,5.746,4.31,7.422,7.182c1.915,3.593,3.351,7.184,4.069,11.253
	  c0.958,4.548,1.437,9.099,1.437,13.886v43.092H96.596v-42.853c0.479-4.788-0.479-9.577-2.872-13.646
	  c-2.155-3.113-5.747-5.028-9.577-4.549c-3.112,0-6.225,0.719-9.098,2.395c-2.872,1.915-5.506,4.31-7.181,7.421"
      ></path>
      <path
        fill="#174880"
        d="M178.472,155.492h-16.997c-3.592-0.239-6.943,0.72-10.056,2.635c-1.915,1.915-3.112,4.549-3.112,7.421
	  c0,2.634,0.958,5.028,2.873,6.943c2.154,1.676,5.027,2.632,7.9,2.393c2.154,0,4.31-0.238,6.464-0.957
	  c1.915-0.479,3.83-1.198,5.506-2.154c1.676-1.196,3.112-2.395,4.31-3.591c1.437-1.438,2.394-2.874,3.352-4.31 M178.472,182.307
	  c-2.634,2.632-5.984,4.787-9.337,6.225c-4.548,1.676-9.337,2.632-14.125,2.393c-3.351,0.239-6.942-0.478-10.055-1.676
	  c-2.873-1.196-5.506-2.871-7.9-5.026c-2.155-2.395-3.83-5.028-5.027-7.9c-1.197-3.113-1.676-6.464-1.676-9.815
	  c0-14.364,11.252-23.702,29.208-23.702h19.151v-4.31c0-2.872-1.676-5.265-4.069-6.463c-3.831-1.677-8.14-2.634-12.449-2.395
	  c-4.788,0-9.576,0.718-14.125,1.676c-3.591,0.959-7.183,2.155-10.773,3.593l-2.154-16.042c1.197-0.717,2.873-1.196,5.027-1.913
	  c1.915-0.719,4.31-1.198,6.465-1.917c2.153-0.479,5.027-0.957,7.899-1.437c2.873-0.477,5.985-0.477,9.098-0.477
	  c8.858-0.722,17.955,2.154,24.658,7.897c5.985,6.227,8.858,14.604,8.379,22.984v46.922h-13.646L178.472,182.307z"
      ></path>
      <polyline
        fill="#174880"
        points="286.442,111.922 255.559,150.706 290.752,190.685 266.812,190.685 234.253,151.185 
	  234.253,190.685 215.34,190.685 215.34,84.15 234.253,84.15 234.253,151.185 263.221,111.922 286.442,111.922 	"
      ></polyline>
      <path
        fill="#174880"
        d="M328.816,130.354c-2.394,0-4.787,0.241-6.942,0.958c-1.915,0.479-3.83,1.438-5.267,2.634
	  c-1.676,0.959-2.873,2.393-3.831,4.07c-0.957,1.676-1.675,3.351-2.154,5.267h33.756c0-1.676-0.239-3.352-0.958-5.027
	  c-0.479-1.438-1.676-2.873-2.873-4.069c-1.436-1.198-3.112-2.155-4.787-2.874C333.365,130.596,330.972,130.116,328.816,130.354
	   M332.407,174.167c2.873,0,5.985-0.24,8.858-0.959c2.634-0.479,5.267-1.196,7.661-2.154c2.155-0.718,4.309-1.676,6.225-2.872
	  c0.958-0.479,1.915-1.198,2.873-1.915l3.591,16.996c-4.07,2.155-8.38,4.07-12.928,5.506c-5.268,1.438-10.773,2.155-16.28,2.155
	  c-5.984,0-11.97-0.957-17.716-2.872c-4.548-1.675-9.097-4.31-12.688-7.9c-3.592-3.353-6.225-7.66-7.9-12.209
	  c-2.154-4.789-3.112-10.056-3.352-15.562c0-5.028,0.718-10.057,2.395-14.844c1.675-4.787,4.069-8.858,7.421-12.688
	  c3.112-3.589,7.182-6.465,11.731-8.378c10.293-4.072,22.023-4.072,32.318,0c4.31,1.676,7.9,4.547,11.013,7.898
	  c2.873,3.353,5.027,7.183,6.464,11.253c1.196,4.31,1.916,8.856,1.916,13.408c0,1.196,0,2.632,0,4.067
	  c-0.24,1.438-0.479,2.874-0.72,4.07h-52.908c0.24,2.634,0.958,5.028,2.155,7.184c0.958,2.154,2.634,4.069,4.549,5.506
	  c1.915,1.675,4.07,2.871,6.703,3.351c2.634,0.959,5.506,1.438,8.618,1.438V174.167z"
      ></path>
      <path
        fill="#174880"
        d="M717.845,124.131l25.378-30.644h5.748v19.391h21.785v16.759h-21.785v32.08c0,1.676,0.237,3.591,0.717,5.506
	  c0.479,1.198,1.196,2.395,2.154,3.591c0.959,0.719,2.155,1.438,3.352,1.678c1.196,0.478,2.396,0.717,3.83,0.717
	  c2.154,0,4.31-0.239,6.227-0.956c1.913-0.24,3.589-0.959,5.265-1.676v16.996c-1.914,0.959-4.068,1.676-6.465,2.155
	  c-6.702,1.436-13.646,1.196-20.11-0.719c-3.109-0.957-5.743-2.632-8.14-4.787c-1.913-2.155-3.589-4.789-4.547-7.66
	  c-0.959-3.113-1.676-6.704-1.438-10.056v-36.39H717.37"
      ></path>
      <path
        fill="#174880"
        d="M803.315,129.158c2.872-4.789,6.46-8.857,11.012-11.971c3.83-2.872,8.619-4.31,13.646-4.067
	  c1.438-0.242,2.872-0.242,4.31,0l2.634,0.477c0,0-0.479,4.31-3.354,17.716c-1.435-0.237-2.872-0.479-4.306-0.237
	  c-3.355-0.242-6.465,0.477-9.578,1.675c-2.871,1.196-5.268,3.111-7.181,5.506c-1.918,2.393-3.593,5.267-4.552,8.378
	  c-0.954,3.83-1.434,7.66-1.434,11.493v32.797H785.36V113.12h11.97"
      ></path>
      <path
        fill="#174880"
        d="M920.862,130.116c-2.155-0.239-4.31,0.238-6.227,0.959c-1.913,0.717-3.589,1.675-5.269,2.871
	  c-1.434,0.959-2.63,2.393-3.83,3.831c-0.955,1.438-1.913,2.871-2.393,4.547v22.027c0.717,1.436,1.676,2.632,2.872,3.83
	  c1.2,1.196,2.396,2.154,3.83,3.111c1.676,0.959,3.351,1.676,5.03,2.155c4.785,1.197,9.815,0.958,14.362-0.72
	  c2.155-1.196,4.31-2.632,5.748-4.547c1.675-1.915,2.871-4.31,3.589-6.704c0.717-2.872,1.196-5.985,1.438-9.097
	  c0-2.873-0.479-5.984-1.438-9.098c-0.718-2.635-1.914-5.027-3.589-7.182c-1.68-1.915-3.593-3.593-5.985-4.55
	  c-2.396-1.197-4.789-1.675-7.423-1.675 M926.126,113.12c5.269-0.242,10.295,0.956,14.846,3.111
	  c4.068,2.152,7.42,5.028,10.291,8.858c2.634,3.83,4.789,8.14,5.985,12.688c1.2,4.788,1.917,9.815,1.917,14.604
	  c0,5.026-0.717,10.056-2.154,14.842c-1.196,4.55-3.352,8.619-6.224,12.21c-2.875,3.591-6.227,6.465-10.294,8.38
	  c-4.31,2.154-9.34,3.111-14.125,3.111c-4.789,0-9.336-0.717-13.646-2.393c-3.593-1.678-6.944-3.832-9.578-6.943v40.459h-19.151
	  V113.12h11.253l7.419,9.336c2.872-2.874,6.465-5.269,10.532-7.182c4.072-1.438,8.382-2.396,12.691-2.154H926.126z"
      ></path>
      <path
        fill="#174880"
        d="M854.547,81.277c-5.506,0-9.815,4.31-9.815,9.815s4.31,10.057,9.815,10.057s9.815-4.551,9.815-10.057
	  c0.237-2.634-0.959-5.026-2.876-6.942c-1.675-1.915-4.306-3.111-6.939-3.111 M863.883,190.924h-19.151V113.12h19.151V190.924z"
      ></path>
    </g>
  </symbol>
  <symbol
    version="1.0"
    id="expedia"
    inkscapeVersion="0.92.2 (5c3e80d, 2017-08-06)"
    sodipodiDocname="Expedia logo 2023.svg"
    xmlnsCc="http://creativecommons.org/ns#"
    xmlnsDc="http://purl.org/dc/elements/1.1/"
    xmlnsInkscape="http://www.inkscape.org/namespaces/inkscape"
    xmlnsRdf="http://www.w3.org/1999/02/22-rdf-syntax-ns#"
    xmlnsSodipodi="http://sodipodi.sourceforge.net/DTD/sodipodi-0.dtd"
    xmlnsSvg="http://www.w3.org/2000/svg"
    xmlns="http://www.w3.org/2000/svg"
    xmlns:xlink="http://www.w3.org/1999/xlink"
    x="0px"
    y="0px"
    xml:space="preserve"
    viewBox="0 0 1224 894.53"
  >
    <style type="text/css">
      .st0 {
        fill: #191e3b;
      }
      .st1 {
        fill: #fddb32;
      }
    </style>
    <sodipodi:namedview
      bordercolor="#666666"
      borderopacity="1.0"
      fit-margin-bottom="0"
      fit-margin-left="0"
      fit-margin-right="0"
      fit-margin-top="0"
      id="base"
      inkscape:current-layer="g3744"
      inkscape:cx="470.94675"
      inkscape:cy="28.774083"
      inkscape:document-units="mm"
      inkscape:guide-bbox="true"
      inkscape:pageopacity="0.0"
      inkscape:pageshadow="2"
      inkscape:snap-smooth-nodes="true"
      inkscape:window-height="705"
      inkscape:window-maximized="1"
      inkscape:window-width="1366"
      inkscape:window-x="-8"
      inkscape:window-y="-8"
      inkscape:zoom="0.70710678"
      pagecolor="#ffffff"
      showgrid="false"
      showguides="false"
      units="px"
    >
      <sodipodi:guide
        id="guide3499"
        inkscape:locked="false"
        orientation="0,1"
        position="149.74285,109.70703"
      ></sodipodi:guide>
      <sodipodi:guide
        id="guide3517"
        inkscape:locked="false"
        orientation="0,1"
        position="301.72942,3.2901383"
      ></sodipodi:guide>
      <sodipodi:guide
        id="guide3528"
        inkscape:locked="false"
        orientation="1,0"
        position="282.05295,94.752445"
      ></sodipodi:guide>
      <sodipodi:guide
        id="guide3542"
        inkscape:locked="false"
        orientation="1,0"
        position="268.87824,81.543505"
      ></sodipodi:guide>
      <sodipodi:guide
        id="guide3613"
        inkscape:locked="false"
        orientation="2.6769023e-008,1"
        position="301.72941,83.642861"
      >
      </sodipodi:guide>
      <sodipodi:guide
        id="guide3620"
        inkscape:locked="false"
        orientation="0,1"
        position="434.25126,66.977316"
      ></sodipodi:guide>
      <sodipodi:guide
        id="guide3649"
        inkscape:locked="false"
        orientation="-0.70710678,0.70710678"
        position="-41.020771,85.485731"
      >
      </sodipodi:guide>
      <sodipodi:guide
        id="guide3658"
        inkscape:locked="false"
        orientation="0,1"
        position="-39.417671,17.219858"
      ></sodipodi:guide>
    </sodipodi:namedview>
    <g
      id="layer1"
      transform="translate(211.74938,-377.82863)"
      inkscape:groupmode="layer"
      inkscape:label="Layer 1"
    >
      <g
        id="g3760"
        transform="matrix(0.37858848,0,0,0.37858848,-108.06807,260.21727)"
      >
        <g id="g3734">
          <path
            id="rect3505"
            inkscape:connector-curvature="0"
            sodipodi:nodetypes="ssssssssccssssccsssss"
            class="st0"
            d="
				M679.43,1266.77c-15.35,0-27.7,12.35-27.7,27.7v338.12c0,15.35,12.36,27.7,27.7,27.7h212.6c4.02,0,7.25-3.23,7.25-7.25v-38.79
				c0-4.02-3.23-7.25-7.25-7.25H711.24v-123.65H873.8c4.02,0,7.25-3.23,7.25-7.25v-36.65c0-4.02-3.23-7.25-7.25-7.25H711.24v-113.4
				h180.78c4.02,0,7.25-3.23,7.25-7.25v-37.54c0-4.02-3.23-7.25-7.25-7.25H679.43z"
          />
          <path
            id="rect3515"
            inkscape:connector-curvature="0"
            sodipodi:nodetypes="scsssssssscssszczcz"
            class="st0"
            d="M1397.13,1365.28
				c-50.59,0-82,17.42-103.03,46.39v-30.26c0-4.02-3.23-7.25-7.25-7.25h-43.78c-4.02,0-7.25,3.23-7.25,7.25v369.13
				c0,4.02,3.23,7.25,7.25,7.25h44.53c4.02,0,7.25-3.23,7.25-7.25v-126.28c19.51,28.09,51.13,44.72,102.27,44.72
				c86.01,0,139.56-68.07,139.56-151.94S1484.24,1365.28,1397.13,1365.28L1397.13,1365.28z M1384.64,1414.11
				c61.88,0,92.32,46.08,92.32,102.93c0,56.84-30.44,102.93-92.32,102.93c-61.88,0-92.32-46.08-92.32-102.93
				C1292.32,1460.2,1322.76,1414.11,1384.64,1414.11z"
          />
          <path
            id="rect3532"
            inkscape:connector-curvature="0"
            class="st0"
            d="M2260.93,1374.16h44.03c4.02,0,7.25,3.23,7.25,7.25v271.63
				c0,4.02-3.23,7.25-7.25,7.25h-44.03c-4.02,0-7.25-3.23-7.25-7.25v-271.63C2253.68,1377.39,2256.91,1374.16,2260.93,1374.16
				L2260.93,1374.16z"
          />
          <path
            id="rect3534"
            inkscape:connector-curvature="0"
            class="st0"
            d="M2260.3,1266.63h45.29c4.02,0,7.25,3.23,7.25,7.25v45.29
				c0,4.02-3.23,7.25-7.25,7.25h-45.29c-4.02,0-7.25-3.23-7.25-7.25v-45.29C2253.05,1269.86,2256.28,1266.63,2260.3,1266.63z"
          />
          <path
            id="path3546"
            inkscape:connector-curvature="0"
            sodipodi:nodetypes="scsssssssscssszczcz"
            class="st0"
            d="M2029.32,1668.98
				c50.59,0,82-17.42,103.03-46.39v30.44c0,4.02,3.23,7.25,7.25,7.25h43.78c4.01,0,7.25-3.23,7.25-7.25v-379.01
				c0-4.02-3.23-7.25-7.25-7.25h-44.53c-4.02,0-7.25,3.23-7.25,7.25v137.59c-20.94-27.38-51.13-46.33-102.27-46.33
				c-86.01,0-139.56,68.07-139.56,151.94S1942.2,1668.98,2029.32,1668.98L2029.32,1668.98z M2041.81,1620.15
				c-61.88,0-92.32-46.08-92.32-102.93c0-56.84,30.44-102.93,92.32-102.93s92.32,46.08,92.32,102.93
				C2134.13,1574.06,2103.68,1620.15,2041.81,1620.15z"
          />
          <path
            id="path3557"
            inkscape:connector-curvature="0"
            class="st0"
            d="M2502.07,1365.46c-87.11,0-139.56,67.9-139.56,151.76
				s52.45,151.76,139.56,151.76c50.59,0,82-17.42,103.03-46.39v30.44c0,4.02,3.23,7.25,7.25,7.25h43.78c4.02,0,7.25-3.23,7.25-7.25
				v-135.81v-135.81c0-4.02-3.23-7.25-7.25-7.25h-43.78c-4.01,0-7.25,3.23-7.25,7.25v30.44
				C2584.06,1382.88,2552.65,1365.46,2502.07,1365.46z M2514.56,1414.29c61.88,0,92.32,46.08,92.32,102.93
				c0,56.84-30.44,102.93-92.32,102.93c-61.88,0-92.32-46.08-92.32-102.93C2422.24,1460.38,2452.68,1414.29,2514.56,1414.29z"
          />
          <path
            id="rect3567"
            inkscape:connector-curvature="0"
            sodipodi:nodetypes="sccssssccsscccsscccss"
            class="st0"
            d="
				M946.15,1374.16c-6.26,0-7.38,4.94-4.54,8.85l93.18,127.6l-102.27,140.81c-2.84,3.91-1.72,8.86,4.54,8.86h50.45
				c4.38,0,6.65-1.49,8.1-3.64l69.69-102.84l72.58,102.84c1.49,2.12,3.73,3.64,8.1,3.64h52.38c6.26,0,7.39-4.95,4.54-8.86
				l-102.86-140.81l92.59-127.6c2.84-3.91,1.72-8.85-4.54-8.85h-49.46c-4.38,0-6.65,1.5-8.1,3.64l-61.15,89.87l-63.17-89.87
				c-1.49-2.12-3.73-3.64-8.1-3.64H946.15z"
          />
          <path
            id="path3599"
            inkscape:connector-curvature="0"
            sodipodi:nodetypes="sscccccccssssccs"
            class="st0"
            d="M1713.36,1365.28
				c-87.6,0-140.33,62.99-140.33,151.85c0,98.01,62.32,151.85,140.33,151.85c94.27,0,131.42-55.44,133.5-57.52
				c2.39-2.39,1.74-6.84-0.27-8.8l-27.25-26.71c-2.01-1.97-5.83-2.27-8.47,0.39c-1.99,2.01-35.16,43.93-89.5,43.93
				c-57.76,0-86.19-35.39-90.02-87.52h215.24c6.67,0,7.04-5.93,7.05-9.83C1854.09,1417.09,1792.59,1365.28,1713.36,1365.28z
				 M1713.55,1411.34c52.98,0,75.18,31.86,79.86,77.24h-159.96C1639.73,1444.09,1663.1,1411.34,1713.55,1411.34z"
          />
        </g>
        <g id="g3744">
          <path
            id="rect3636"
            inkscape:connector-curvature="0"
            class="st1"
            d="M120.46,1226.34h278.06c54.56,0,98.49,43.93,98.49,98.49
				v278.06c0,54.56-43.93,98.49-98.49,98.49H120.46c-54.56,0-98.49-43.93-98.49-98.49v-278.06
				C21.97,1270.27,65.9,1226.34,120.46,1226.34z"
          />
          <g id="g3738">
            <path
              id="path3707"
              inkscape:connector-curvature="0"
              class="st0"
              d="M154.81,1311.39c-4.43,0-7.21,1.02-9.55,3.36l-47.47,47.47
					c-0.88,0.88-1.38,2.08-1.38,3.32c0,2.6,2.1,4.7,4.7,4.7h205.78l-126.51,126.51c-2.49,2.49-3.94,3.94-3.94,8.84l0,33.29
					c0,2.02,0.92,3.76,2.23,5.08c1.32,1.32,3.06,2.23,5.08,2.23h33.29c4.89,0,6.34-1.45,8.83-3.94l126.51-126.51v205.78
					c0,2.59,2.1,4.7,4.7,4.7c1.25,0,2.44-0.5,3.32-1.38l47.47-47.47c2.34-2.34,3.36-5.13,3.36-9.55l0-224.7
					c0-17.52-14.2-31.72-31.72-31.72c0,0,0,0,0,0L154.81,1311.39z"
            />
            <path
              id="rect3709"
              inkscape:connector-curvature="0"
              class="st0"
              d="M114.5,1555.43h45.66c3.82,0,6.89,3.07,6.89,6.89v45.95
					c0,3.82-3.07,6.89-6.89,6.89H114.5c-3.82,0-6.89-3.07-6.89-6.89v-45.95C107.6,1558.5,110.68,1555.43,114.5,1555.43z"
            />
          </g>
        </g>
      </g>
    </g>
  </symbol>
  <symbol
    xmlns="http://www.w3.org/2000/svg"
    xmlns:xlink="http://www.w3.org/1999/xlink"
    version="1.1"
    viewBox="0 0 75 59"
    id="goibibo"
  >
    <g id="surface1">
      <path
        style="
          stroke: none;
          fill-rule: evenodd;
          fill: rgb(5.099487%, 40.79895%, 70.199585%);
          fill-opacity: 1;
        "
        d="M 31.46875 22.140625 C 32.175781 22.140625 32.75 22.660156 32.75 23.300781 C 32.75 23.945313 32.175781 24.464844 31.46875 24.464844 C 30.757813 24.464844 30.179688 23.945313 30.179688 23.300781 C 30.179688 22.660156 30.757813 22.140625 31.46875 22.140625 Z M 30.394531 25.605469 L 32.566406 25.605469 L 32.566406 32.855469 L 30.394531 32.855469 L 30.394531 25.605469 "
      />
      <path
        style="
          stroke: none;
          fill-rule: evenodd;
          fill: rgb(95.298767%, 41.999817%, 12.89978%);
          fill-opacity: 1;
        "
        d="M 18.460938 29.6875 C 18.203125 32.082031 15.011719 31.949219 15.445313 28.785156 C 15.578125 27.808594 16.234375 26.890625 17.402344 27.199219 C 18.351563 27.453125 18.585938 28.519531 18.460938 29.6875 Z M 18.441406 31.835938 C 18.675781 34.644531 16.40625 35.066406 14.492188 34.34375 C 14.242188 34.246094 14.007813 34.09375 13.78125 34.015625 L 13.78125 35.84375 C 13.980469 36.109375 15.160156 36.265625 15.578125 36.289063 C 17.488281 36.402344 19.402344 35.945313 20.261719 34.195313 C 20.839844 33.023438 20.699219 31.523438 20.699219 30.109375 C 20.699219 28.597656 20.699219 27.085938 20.699219 25.574219 L 18.449219 25.574219 L 18.445313 26.429688 C 18.21875 26.261719 17.964844 25.605469 16.878906 25.441406 C 16.128906 25.324219 15.320313 25.5 14.777344 25.839844 C 13.773438 26.472656 13.125 27.648438 13.113281 29.335938 C 13.105469 31.007813 13.710938 32.234375 14.804688 32.769531 C 15.40625 33.066406 16.277344 33.152344 16.984375 32.949219 C 17.96875 32.660156 18.21875 32.019531 18.441406 31.835938 "
      />
      <path
        style="
          stroke: none;
          fill-rule: evenodd;
          fill: rgb(5.099487%, 40.79895%, 70.199585%);
          fill-opacity: 1;
        "
        d="M 51.289063 29.652344 C 51.210938 30.179688 51.023438 30.644531 50.753906 30.917969 C 50.484375 31.191406 49.917969 31.40625 49.367188 31.277344 C 48.21875 31.011719 48.214844 29.703125 48.277344 28.785156 C 48.34375 27.800781 49.078125 26.9375 50.203125 27.1875 C 51.175781 27.40625 51.453125 28.542969 51.289063 29.652344 Z M 46.050781 32.886719 L 48.304688 32.886719 L 48.304688 32.03125 C 48.46875 32.125 48.761719 32.832031 49.867188 33.019531 C 50.628906 33.144531 51.457031 32.976563 52.003906 32.625 C 53.007813 31.96875 53.605469 30.835938 53.640625 29.128906 C 53.671875 27.503906 53.101563 26.164063 51.976563 25.65625 C 51.058594 25.242188 49.722656 25.324219 48.925781 26.011719 C 48.667969 26.234375 48.355469 26.648438 48.308594 26.679688 C 48.289063 25.980469 48.355469 22.382813 48.285156 22.074219 L 46.070313 22.074219 C 46.003906 22.367188 46.050781 26.75 46.050781 27.449219 C 46.050781 29.261719 46.050781 31.074219 46.050781 32.886719 "
      />
      <path
        style="
          stroke: none;
          fill-rule: evenodd;
          fill: rgb(5.099487%, 40.79895%, 70.199585%);
          fill-opacity: 1;
        "
        d="M 39.140625 29.652344 C 38.839844 31.816406 36.78125 31.675781 36.265625 30.449219 C 36.085938 30.011719 36.09375 29.304688 36.128906 28.78125 C 36.191406 27.796875 36.9375 26.933594 38.058594 27.1875 C 39.023438 27.410156 39.300781 28.515625 39.140625 29.652344 Z M 33.902344 32.886719 L 36.152344 32.882813 L 36.15625 32.03125 C 36.34375 32.160156 36.304688 32.304688 36.792969 32.652344 C 38.164063 33.628906 41.414063 33.082031 41.488281 29.128906 C 41.523438 27.503906 40.957031 26.152344 39.808594 25.652344 C 38.726563 25.179688 37.222656 25.375 36.460938 26.320313 C 36.382813 26.414063 36.246094 26.621094 36.15625 26.679688 L 36.152344 22.082031 L 33.902344 22.074219 L 33.902344 32.886719 "
      />
      <path
        style="
          stroke: none;
          fill-rule: evenodd;
          fill: rgb(5.099487%, 40.79895%, 70.199585%);
          fill-opacity: 1;
        "
        d="M 58.097656 31.3125 C 56.828125 31.3125 56.363281 30.515625 56.363281 29.234375 C 56.363281 28.003906 56.875 27.152344 58.097656 27.152344 C 59.417969 27.152344 59.664063 28.21875 59.664063 29.335938 C 59.664063 30.425781 59.214844 31.3125 58.097656 31.3125 Z M 54.09375 29.796875 C 54.324219 32.046875 56.097656 33.292969 58.597656 33.027344 C 60.824219 32.789063 62.183594 31.121094 61.945313 28.636719 C 61.5 23.996094 53.527344 24.199219 54.09375 29.796875 "
      />
      <path
        style="
          stroke: none;
          fill-rule: evenodd;
          fill: rgb(95.298767%, 41.999817%, 12.89978%);
          fill-opacity: 1;
        "
        d="M 23.882813 29.6875 C 23.59375 26.894531 25.785156 26.828125 26.59375 27.488281 C 27.386719 28.136719 27.5625 30.933594 25.949219 31.277344 C 25.402344 31.394531 24.757813 31.246094 24.449219 30.964844 C 24.117188 30.660156 23.945313 30.261719 23.882813 29.6875 Z M 25.050781 25.433594 C 22.769531 25.660156 21.371094 27.179688 21.585938 29.703125 C 21.777344 31.996094 23.507813 33.25 25.980469 33.035156 C 28.269531 32.835938 29.621094 31.230469 29.453125 28.742188 C 29.296875 26.492188 27.496094 25.191406 25.050781 25.433594 "
      />
      <path
        style="
          stroke: none;
          fill-rule: nonzero;
          fill: rgb(13.699341%, 12.199402%, 12.5%);
          fill-opacity: 1;
        "
        d="M 50.171875 36.34375 C 50.171875 36.195313 50.21875 36.070313 50.316406 35.964844 C 50.410156 35.855469 50.523438 35.804688 50.65625 35.804688 C 50.789063 35.804688 50.90625 35.855469 51 35.964844 C 51.09375 36.070313 51.140625 36.195313 51.140625 36.34375 C 51.140625 36.492188 51.09375 36.621094 51 36.726563 C 50.90625 36.832031 50.789063 36.882813 50.65625 36.882813 C 50.523438 36.882813 50.410156 36.832031 50.316406 36.726563 C 50.21875 36.621094 50.171875 36.492188 50.171875 36.34375 Z M 53.820313 36.042969 L 53.820313 36.691406 C 53.503906 36.820313 53.214844 36.882813 52.953125 36.882813 C 52.5 36.882813 52.140625 36.746094 51.871094 36.476563 C 51.601563 36.207031 51.464844 35.847656 51.464844 35.402344 C 51.464844 34.96875 51.601563 34.605469 51.875 34.324219 C 52.148438 34.042969 52.492188 33.902344 52.914063 33.902344 C 53.1875 33.902344 53.476563 33.960938 53.78125 34.085938 L 53.78125 34.757813 C 53.558594 34.628906 53.339844 34.566406 53.125 34.566406 C 52.882813 34.566406 52.691406 34.640625 52.542969 34.789063 C 52.398438 34.941406 52.328125 35.144531 52.328125 35.394531 C 52.328125 35.648438 52.398438 35.855469 52.539063 36.011719 C 52.679688 36.167969 52.867188 36.242188 53.09375 36.242188 C 53.265625 36.242188 53.507813 36.175781 53.820313 36.042969 Z M 55.507813 33.902344 C 55.910156 33.902344 56.253906 34.03125 56.53125 34.296875 C 56.8125 34.558594 56.953125 34.925781 56.953125 35.394531 C 56.953125 35.867188 56.808594 36.234375 56.523438 36.492188 C 56.238281 36.753906 55.902344 36.882813 55.507813 36.882813 C 55.082031 36.882813 54.734375 36.746094 54.464844 36.46875 C 54.195313 36.191406 54.058594 35.832031 54.058594 35.390625 C 54.058594 34.941406 54.195313 34.578125 54.472656 34.308594 C 54.746094 34.035156 55.09375 33.902344 55.507813 33.902344 Z M 55.511719 36.347656 C 55.894531 36.347656 56.089844 36.023438 56.089844 35.371094 C 56.089844 34.753906 55.894531 34.441406 55.511719 34.441406 C 55.324219 34.441406 55.179688 34.523438 55.078125 34.6875 C 54.972656 34.851563 54.917969 35.085938 54.917969 35.394531 C 54.917969 36.03125 55.117188 36.347656 55.511719 36.347656 Z M 58.144531 33.960938 L 58.144531 34.328125 C 58.417969 34.042969 58.714844 33.902344 59.035156 33.902344 C 59.476563 33.902344 59.78125 34.101563 59.957031 34.507813 C 60.269531 34.101563 60.605469 33.902344 60.96875 33.902344 C 61.265625 33.902344 61.503906 34 61.691406 34.203125 C 61.878906 34.402344 61.972656 34.660156 61.972656 34.984375 L 61.972656 36.820313 L 61.164063 36.820313 L 61.164063 35.144531 C 61.164063 34.941406 61.121094 34.785156 61.039063 34.671875 C 60.957031 34.558594 60.839844 34.503906 60.691406 34.503906 C 60.457031 34.503906 60.246094 34.664063 60.058594 34.988281 L 60.058594 36.820313 L 59.25 36.820313 L 59.25 35.125 C 59.25 34.925781 59.207031 34.769531 59.113281 34.664063 C 59.027344 34.554688 58.90625 34.503906 58.757813 34.503906 C 58.546875 34.503906 58.34375 34.632813 58.144531 34.898438 L 58.144531 36.820313 L 57.335938 36.820313 L 57.335938 33.960938 L 58.144531 33.960938 "
      />
      <path
        style="
          stroke: none;
          fill-rule: evenodd;
          fill: rgb(5.099487%, 40.79895%, 70.199585%);
          fill-opacity: 1;
        "
        d="M 43.648438 22.140625 C 44.359375 22.140625 44.933594 22.660156 44.933594 23.300781 C 44.933594 23.945313 44.359375 24.464844 43.648438 24.464844 C 42.941406 24.464844 42.363281 23.945313 42.363281 23.300781 C 42.363281 22.660156 42.941406 22.140625 43.648438 22.140625 Z M 42.578125 25.605469 L 44.746094 25.605469 L 44.746094 32.855469 L 42.578125 32.855469 L 42.578125 25.605469 "
      />
    </g>
  </symbol>
</svg>
<!-- SVG References -->
<svg class="icon">
  <use xlink:href="#tripadvisor"></use>
</svg>
<svg class="icon">
  <use xlink:href="#trivago"></use>
</svg>
<svg class="icon">
  <use xlink:href="#agoda"></use>
</svg>
<svg class="icon">
  <use xlink:href="#makemytrip"></use>
</svg>
<svg class="icon">
  <use xlink:href="#expedia"></use>
</svg>
<svg class="icon">
  <use xlink:href="#goibibo"></use>
</svg>
